<svg version="1.2" xmlns="http://www.w3.org/2000/svg" viewBox="0 0 614 256" width="614" height="256">
	<title>Discord-svg</title>
	<defs>
		<clipPath clipPathUnits="userSpaceOnUse" id="cp1">
			<path d="m0 0h614v256h-614z"/>
		</clipPath>
		<clipPath clipPathUnits="userSpaceOnUse" id="cp2">
			<path d="m258 51h-200v154.93h200z"/>
		</clipPath>
	</defs>
	<style>
		.s0 { fill: #5865f2 } 
		.s1 { fill: #ffffff } 
	</style>
	<g id="Clip-Path: Clip-Path" clip-path="url(#cp1)">
		<g id="Clip-Path">
			<g id="Layer">
				<path id="Layer" class="s0" d="m470.1 0h-326.2c-79.5 0-143.9 26.9-143.9 60v136c0 33.1 64.4 60 143.9 60h326.2c79.5 0 143.9-26.9 143.9-60v-136c0-33.1-64.4-60-143.9-60z"/>
				<g id="Clip-Path: Clip-Path" clip-path="url(#cp2)">
					<g id="Clip-Path">
						<g id="Layer">
							<path id="Layer" fill-rule="evenodd" class="s1" d="m227.6 65c22.6 33.3 33.7 70.7 29.5 113.9q0 0.3-0.2 0.4c-17.1 12.6-33.7 20.2-50 25.3-0.3 0.1-0.6 0-0.7-0.3-3.8-5.2-7.2-10.8-10.3-16.6-0.1-0.3 0-0.7 0.4-0.9 5.4-2 10.6-4.5 15.6-7.4 0.4-0.2 0.4-0.8 0.1-1.1q-1.6-1.1-3.2-2.4c-0.1-0.1-0.4-0.2-0.6-0.1-32.4 15-67.8 15-100.5 0-0.2-0.1-0.5 0-0.7 0.1q-1.5 1.3-3.1 2.4c-0.3 0.3-0.3 0.9 0.1 1.1 5 2.9 10.2 5.4 15.6 7.4 0.4 0.2 0.5 0.6 0.3 0.9-2.9 5.9-6.3 11.4-10.2 16.6-0.1 0.3-0.4 0.4-0.7 0.3-16.2-5.1-32.8-12.7-49.9-25.3-0.2-0.1-0.3-0.3-0.3-0.4-3.5-37.4 3.6-75.1 29.6-113.9q0.1-0.1 0.2-0.2c12.8-5.9 26.5-10.2 40.8-12.6 0.2-0.1 0.5 0 0.6 0.3 1.8 3.1 3.8 7.1 5.2 10.4 15-2.3 30.3-2.3 45.7 0 1.3-3.2 3.3-7.3 5-10.4 0.2-0.3 0.4-0.4 0.7-0.3 14.3 2.4 28 6.7 40.7 12.6q0.2 0.1 0.3 0.2zm-84.8 71c0.2-11-7.9-20.2-18-20.2-10 0-17.9 9.1-17.9 20.2 0 11.1 8.1 20.1 17.9 20.1 10 0 18-9 18-20.1zm66.5 0c0.1-11-7.9-20.2-18-20.2-10 0-18 9.1-18 20.2 0 11.1 8.1 20.1 18 20.1 10.1 0 18-9 18-20.1z"/>
						</g>
					</g>
				</g>
			</g>
		</g>
		<path id="ngtsgw" class="s1" aria-label="ngtsgw"  d="m277.1 98.8h14.6l0.6 5.9q5.1-6.8 14.3-6.8 7.8 0 11.7 4.7 3.9 4.7 4 14.1v32.3h-15.7v-31.7q0-3.8-1.5-5.5-1.5-1.9-5.6-1.9-4.6 0-6.8 3.7v35.4h-15.6zm52 25.3v-0.6q0-7.6 2.5-13.4 2.5-5.9 7.2-9 4.7-3.2 10.9-3.2 7.9 0 12.3 5.3l0.5-4.4h14.2v48.3q0 6.6-3.1 11.5-3 4.9-8.9 7.6-5.8 2.6-13.5 2.6-5.6 0-10.8-2.1-5.1-2.1-7.8-5.5l6.5-9.1q4.4 5.1 11.5 5.1 10.4 0 10.4-10.7v-1.5q-4.5 4.9-11.4 4.9-9.2 0-14.8-7-5.7-7-5.7-18.8zm15.7 0.4q0 6.2 2.3 9.8 2.3 3.6 6.5 3.6 5.1 0 7.4-3.4v-21.1q-2.3-3.5-7.3-3.5-4.2 0-6.5 3.8-2.4 3.7-2.4 10.8zm43.4-38.2h15.6v12.5h8.3v10.9h-8.3v22.9q0 2.8 1 4 1.1 1.1 4.1 1.1 2.3 0 3.9-0.3v11.2q-4.3 1.3-8.9 1.3-8 0-11.9-3.8-3.8-3.8-3.8-11.5v-24.9h-6.4v-10.9h6.4zm56.3 48.6q0-2-2.1-3.2-2.1-1.2-7.9-2.5-5.9-1.3-9.7-3.4-3.8-2.2-5.8-5.2-2-3-2-6.9 0-6.9 5.7-11.4 5.7-4.4 15-4.4 9.9 0 15.9 4.4 6.1 4.5 6.1 11.9h-15.7q0-6.1-6.4-6.1-2.4 0-4.1 1.4-1.7 1.4-1.7 3.4 0 2.1 2.1 3.4 2 1.3 6.5 2.1 4.5 0.9 7.8 2 11.4 3.9 11.4 14 0 6.9-6.2 11.2-6 4.3-15.7 4.3-6.5 0-11.5-2.3-5.1-2.3-7.9-6.3-2.8-4-2.8-8.4h14.6q0.1 3.5 2.3 5.1 2.2 1.6 5.7 1.6 3.2 0 4.8-1.3 1.6-1.3 1.6-3.4zm20.5-10.8v-0.6q0-7.6 2.5-13.4 2.6-5.9 7.2-9 4.7-3.2 10.9-3.2 7.9 0 12.3 5.2l0.5-4.3h14.2v48.3q0 6.6-3.1 11.5-3 4.9-8.9 7.5-5.8 2.6-13.5 2.6-5.5 0-10.7-2.1-5.2-2-7.9-5.4l6.5-9.2q4.4 5.2 11.5 5.2 10.4 0 10.4-10.7v-1.6q-4.5 5-11.4 5-9.1 0-14.8-7-5.7-7.1-5.7-18.8zm15.7 0.4q0 6.1 2.3 9.8 2.4 3.5 6.5 3.5 5.1 0 7.4-3.4v-21.1q-2.3-3.4-7.3-3.4-4.1 0-6.5 3.8-2.4 3.7-2.4 10.8zm76.3-25.7l7.9 29.6 5-29.6h15l-11.8 50.2h-13.2l-8.3-29.8-8.4 29.8h-13.2l-11.8-50.2h14.9l5 30.3 8-30.3z"/>
	</g>
</svg>